<svg width="20" height="30" viewBox="0 0 20 47" fill="none" xmlns="http://www.w3.org/2000/svg">
<g filter="url(#filter0_d)">
<path d="M12 -2.18551e-08L12 34" stroke="#FF7676"/>
<path fill-rule="evenodd" clip-rule="evenodd" d="M5.646 27.6459C5.69245 27.5994 5.74762 27.5624 5.80837 27.5372C5.86911 27.512 5.93423 27.499 6 27.499C6.06577 27.499 6.13089 27.512 6.19163 27.5372C6.25238 27.5624 6.30756 27.5994 6.354 27.6459L12 33.2929L17.646 27.6459C17.6925 27.5994 17.7477 27.5626 17.8084 27.5374C17.8692 27.5122 17.9343 27.4993 18 27.4993C18.0657 27.4993 18.1308 27.5122 18.1916 27.5374C18.2523 27.5626 18.3075 27.5994 18.354 27.6459C18.4005 27.6924 18.4374 27.7476 18.4625 27.8083C18.4877 27.8691 18.5006 27.9342 18.5006 27.9999C18.5006 28.0657 18.4877 28.1308 18.4625 28.1915C18.4374 28.2522 18.4005 28.3074 18.354 28.3539L12.354 34.3539C12.3076 34.4005 12.2524 34.4374 12.1916 34.4626C12.1309 34.4878 12.0658 34.5008 12 34.5008C11.9342 34.5008 11.8691 34.4878 11.8084 34.4626C11.7476 34.4374 11.6924 34.4005 11.646 34.3539L5.646 28.3539C5.59944 28.3075 5.5625 28.2523 5.53729 28.1916C5.51208 28.1308 5.49911 28.0657 5.49911 27.9999C5.49911 27.9341 5.51208 27.869 5.53729 27.8083C5.5625 27.7475 5.59944 27.6924 5.646 27.6459Z" fill="#FF7676"/>
</g>
<defs>
<filter id="filter0_d" x="0" y="0" width="24" height="47" filterUnits="userSpaceOnUse" color-interpolation-filters="sRGB">
<feFlood flood-opacity="0" result="BackgroundImageFix"/>
<feColorMatrix in="SourceAlpha" type="matrix" values="0 0 0 0 0 0 0 0 0 0 0 0 0 0 0 0 0 0 127 0"/>
<feOffset dy="4"/>
<feGaussianBlur stdDeviation="2"/>
<feColorMatrix type="matrix" values="0 0 0 0 0 0 0 0 0 0 0 0 0 0 0 0 0 0 0.25 0"/>
<feBlend mode="normal" in2="BackgroundImageFix" result="effect1_dropShadow"/>
<feBlend mode="normal" in="SourceGraphic" in2="effect1_dropShadow" result="shape"/>
</filter>
</defs>
</svg>
