<svg width="180" height="66" viewBox="0 0 258 66" fill="none" xmlns="http://www.w3.org/2000/svg">
<rect width="258" height="66" fill="#273298"/>
<path d="M29.52 29.12C29.056 28.144 28.384 27.392 27.504 26.864C26.624 26.32 25.6 26.048 24.432 26.048C23.264 26.048 22.208 26.32 21.264 26.864C20.336 27.392 19.6 28.16 19.056 29.168C18.528 30.16 18.264 31.312 18.264 32.624C18.264 33.936 18.528 35.088 19.056 36.08C19.6 37.072 20.336 37.84 21.264 38.384C22.208 38.912 23.264 39.176 24.432 39.176C26.064 39.176 27.408 38.688 28.464 37.712C29.52 36.736 30.136 35.416 30.312 33.752H23.64V31.976H32.64V33.656C32.512 35.032 32.08 36.296 31.344 37.448C30.608 38.584 29.64 39.488 28.44 40.16C27.24 40.816 25.904 41.144 24.432 41.144C22.88 41.144 21.464 40.784 20.184 40.064C18.904 39.328 17.888 38.312 17.136 37.016C16.4 35.72 16.032 34.256 16.032 32.624C16.032 30.992 16.4 29.528 17.136 28.232C17.888 26.92 18.904 25.904 20.184 25.184C21.464 24.448 22.88 24.08 24.432 24.08C26.208 24.08 27.776 24.52 29.136 25.4C30.512 26.28 31.512 27.52 32.136 29.12H29.52ZM47.5277 33.92C47.5277 34.336 47.5037 34.776 47.4557 35.24H36.9437C37.0237 36.536 37.4637 37.552 38.2637 38.288C39.0797 39.008 40.0637 39.368 41.2157 39.368C42.1597 39.368 42.9437 39.152 43.5677 38.72C44.2077 38.272 44.6557 37.68 44.9117 36.944H47.2637C46.9117 38.208 46.2077 39.24 45.1517 40.04C44.0957 40.824 42.7837 41.216 41.2157 41.216C39.9677 41.216 38.8477 40.936 37.8557 40.376C36.8797 39.816 36.1117 39.024 35.5517 38C34.9917 36.96 34.7117 35.76 34.7117 34.4C34.7117 33.04 34.9837 31.848 35.5277 30.824C36.0717 29.8 36.8317 29.016 37.8077 28.472C38.7997 27.912 39.9357 27.632 41.2157 27.632C42.4637 27.632 43.5677 27.904 44.5277 28.448C45.4877 28.992 46.2237 29.744 46.7357 30.704C47.2637 31.648 47.5277 32.72 47.5277 33.92ZM45.2717 33.464C45.2717 32.632 45.0877 31.92 44.7197 31.328C44.3517 30.72 43.8477 30.264 43.2077 29.96C42.5837 29.64 41.8877 29.48 41.1197 29.48C40.0157 29.48 39.0717 29.832 38.2877 30.536C37.5197 31.24 37.0797 32.216 36.9677 33.464H45.2717ZM53.0745 29.648V37.4C53.0745 38.04 53.2105 38.496 53.4825 38.768C53.7545 39.024 54.2265 39.152 54.8985 39.152H56.5065V41H54.5385C53.3225 41 52.4105 40.72 51.8025 40.16C51.1945 39.6 50.8905 38.68 50.8905 37.4V29.648H49.1865V27.848H50.8905V24.536H53.0745V27.848H56.5065V29.648H53.0745ZM70.2071 41.216C69.1991 41.216 68.2951 41.048 67.4951 40.712C66.6951 40.36 66.0631 39.88 65.5991 39.272C65.1351 38.648 64.8791 37.936 64.8311 37.136H67.0871C67.1511 37.792 67.4551 38.328 67.9991 38.744C68.5591 39.16 69.2871 39.368 70.1831 39.368C71.0151 39.368 71.6711 39.184 72.1511 38.816C72.6311 38.448 72.8711 37.984 72.8711 37.424C72.8711 36.848 72.6151 36.424 72.1031 36.152C71.5911 35.864 70.7991 35.584 69.7271 35.312C68.7511 35.056 67.9511 34.8 67.3271 34.544C66.7191 34.272 66.1911 33.88 65.7431 33.368C65.3111 32.84 65.0951 32.152 65.0951 31.304C65.0951 30.632 65.2951 30.016 65.6951 29.456C66.0951 28.896 66.6631 28.456 67.3991 28.136C68.1351 27.8 68.9751 27.632 69.9191 27.632C71.3751 27.632 72.5511 28 73.4471 28.736C74.3431 29.472 74.8231 30.48 74.8871 31.76H72.7031C72.6551 31.072 72.3751 30.52 71.8631 30.104C71.3671 29.688 70.6951 29.48 69.8471 29.48C69.0631 29.48 68.4391 29.648 67.9751 29.984C67.5111 30.32 67.2791 30.76 67.2791 31.304C67.2791 31.736 67.4151 32.096 67.6871 32.384C67.9751 32.656 68.3271 32.88 68.7431 33.056C69.1751 33.216 69.7671 33.4 70.5191 33.608C71.4631 33.864 72.2311 34.12 72.8231 34.376C73.4151 34.616 73.9191 34.984 74.3351 35.48C74.7671 35.976 74.9911 36.624 75.0071 37.424C75.0071 38.144 74.8071 38.792 74.4071 39.368C74.0071 39.944 73.4391 40.4 72.7031 40.736C71.9831 41.056 71.1511 41.216 70.2071 41.216ZM80.7542 29.648V37.4C80.7542 38.04 80.8902 38.496 81.1622 38.768C81.4342 39.024 81.9062 39.152 82.5782 39.152H84.1862V41H82.2182C81.0022 41 80.0902 40.72 79.4822 40.16C78.8742 39.6 78.5702 38.68 78.5702 37.4V29.648H76.8662V27.848H78.5702V24.536H80.7542V27.848H84.1862V29.648H80.7542ZM86.0164 34.376C86.0164 33.032 86.2884 31.856 86.8324 30.848C87.3764 29.824 88.1204 29.032 89.0644 28.472C90.0244 27.912 91.0884 27.632 92.2564 27.632C93.4084 27.632 94.4084 27.88 95.2564 28.376C96.1044 28.872 96.7364 29.496 97.1524 30.248V27.848H99.3604V41H97.1524V38.552C96.7204 39.32 96.0724 39.96 95.2084 40.472C94.3604 40.968 93.3684 41.216 92.2324 41.216C91.0644 41.216 90.0084 40.928 89.0644 40.352C88.1204 39.776 87.3764 38.968 86.8324 37.928C86.2884 36.888 86.0164 35.704 86.0164 34.376ZM97.1524 34.4C97.1524 33.408 96.9524 32.544 96.5524 31.808C96.1524 31.072 95.6084 30.512 94.9204 30.128C94.2484 29.728 93.5044 29.528 92.6884 29.528C91.8724 29.528 91.1284 29.72 90.4564 30.104C89.7844 30.488 89.2484 31.048 88.8484 31.784C88.4484 32.52 88.2484 33.384 88.2484 34.376C88.2484 35.384 88.4484 36.264 88.8484 37.016C89.2484 37.752 89.7844 38.32 90.4564 38.72C91.1284 39.104 91.8724 39.296 92.6884 39.296C93.5044 39.296 94.2484 39.104 94.9204 38.72C95.6084 38.32 96.1524 37.752 96.5524 37.016C96.9524 36.264 97.1524 35.392 97.1524 34.4ZM105.235 29.984C105.619 29.232 106.163 28.648 106.867 28.232C107.587 27.816 108.459 27.608 109.483 27.608V29.864H108.907C106.459 29.864 105.235 31.192 105.235 33.848V41H103.051V27.848H105.235V29.984ZM114.668 29.648V37.4C114.668 38.04 114.804 38.496 115.076 38.768C115.348 39.024 115.82 39.152 116.492 39.152H118.1V41H116.132C114.916 41 114.004 40.72 113.396 40.16C112.788 39.6 112.484 38.68 112.484 37.4V29.648H110.78V27.848H112.484V24.536H114.668V27.848H118.1V29.648H114.668ZM132.746 33.92C132.746 34.336 132.722 34.776 132.674 35.24H122.162C122.242 36.536 122.682 37.552 123.482 38.288C124.298 39.008 125.282 39.368 126.434 39.368C127.378 39.368 128.162 39.152 128.786 38.72C129.426 38.272 129.874 37.68 130.13 36.944H132.482C132.13 38.208 131.426 39.24 130.37 40.04C129.314 40.824 128.002 41.216 126.434 41.216C125.186 41.216 124.066 40.936 123.074 40.376C122.098 39.816 121.33 39.024 120.77 38C120.21 36.96 119.93 35.76 119.93 34.4C119.93 33.04 120.202 31.848 120.746 30.824C121.29 29.8 122.05 29.016 123.026 28.472C124.018 27.912 125.154 27.632 126.434 27.632C127.682 27.632 128.786 27.904 129.746 28.448C130.706 28.992 131.442 29.744 131.954 30.704C132.482 31.648 132.746 32.72 132.746 33.92ZM130.49 33.464C130.49 32.632 130.306 31.92 129.938 31.328C129.57 30.72 129.066 30.264 128.426 29.96C127.802 29.64 127.106 29.48 126.338 29.48C125.234 29.48 124.29 29.832 123.506 30.536C122.738 31.24 122.298 32.216 122.186 33.464H130.49ZM134.813 34.376C134.813 33.032 135.085 31.856 135.629 30.848C136.173 29.824 136.917 29.032 137.861 28.472C138.821 27.912 139.893 27.632 141.077 27.632C142.101 27.632 143.053 27.872 143.933 28.352C144.813 28.816 145.485 29.432 145.949 30.2V23.24H148.157V41H145.949V38.528C145.517 39.312 144.877 39.96 144.029 40.472C143.181 40.968 142.189 41.216 141.053 41.216C139.885 41.216 138.821 40.928 137.861 40.352C136.917 39.776 136.173 38.968 135.629 37.928C135.085 36.888 134.813 35.704 134.813 34.376ZM145.949 34.4C145.949 33.408 145.749 32.544 145.349 31.808C144.949 31.072 144.405 30.512 143.717 30.128C143.045 29.728 142.301 29.528 141.485 29.528C140.669 29.528 139.925 29.72 139.253 30.104C138.581 30.488 138.045 31.048 137.645 31.784C137.245 32.52 137.045 33.384 137.045 34.376C137.045 35.384 137.245 36.264 137.645 37.016C138.045 37.752 138.581 38.32 139.253 38.72C139.925 39.104 140.669 39.296 141.485 39.296C142.301 39.296 143.045 39.104 143.717 38.72C144.405 38.32 144.949 37.752 145.349 37.016C145.749 36.264 145.949 35.392 145.949 34.4Z" fill="white"/>
<path d="M178.812 21.4853V44.5127C178.813 44.5627 178.828 44.6115 178.855 44.653C178.883 44.6945 178.923 44.7269 178.969 44.7461C179.015 44.7653 179.066 44.7705 179.115 44.761C179.164 44.7514 179.209 44.7277 179.244 44.6926L191.234 32.9996L179.244 21.3055C179.209 21.2704 179.164 21.2466 179.115 21.2371C179.066 21.2276 179.015 21.2327 178.969 21.2519C178.923 21.2711 178.883 21.3035 178.855 21.3451C178.828 21.3866 178.813 21.4354 178.812 21.4853Z" fill="white"/>
<path d="M196.262 28.1955L181.228 19.9127L181.218 19.9074C180.959 19.7668 180.713 20.1172 180.925 20.3211L192.71 31.5898L196.262 28.1955Z" fill="white"/>
<path d="M180.927 45.6791C180.713 45.883 180.959 46.2334 181.22 46.0928L181.229 46.0875L196.262 37.8047L192.71 34.4092L180.927 45.6791Z" fill="white"/>
<path d="M202.331 31.5348L198.133 29.2227L194.185 32.9996L198.133 36.7748L202.331 34.4644C203.473 33.8334 203.473 32.1658 202.331 31.5348Z" fill="white"/>
<path d="M233.125 20C225.875 20 220 25.8746 220 33.125C220 40.3754 225.875 46.25 233.125 46.25C240.375 46.25 246.25 40.3754 246.25 33.125C246.25 25.8746 240.375 20 233.125 20ZM228.145 38.8607C228.064 38.9981 227.949 39.1119 227.81 39.1905C227.672 39.2692 227.515 39.3101 227.356 39.309C227.194 39.3104 227.034 39.2666 226.895 39.1824C226.792 39.1225 226.701 39.0428 226.629 38.9479C226.557 38.853 226.504 38.7447 226.473 38.6292C226.443 38.5137 226.435 38.3934 226.451 38.275C226.468 38.1567 226.507 38.0427 226.567 37.9396L227.463 36.4502C227.508 36.3733 227.573 36.3096 227.65 36.2654C227.728 36.2212 227.816 36.1981 227.905 36.1982H228.037C228.687 36.1982 229.142 36.5891 229.274 36.9676L228.145 38.8607ZM235.729 35.9311L229.863 35.9375H225.963C225.84 35.938 225.719 35.9136 225.606 35.8658C225.493 35.8179 225.391 35.7476 225.306 35.6591C225.221 35.5706 225.155 35.4658 225.112 35.351C225.068 35.2362 225.049 35.1138 225.054 34.9912C225.073 34.499 225.503 34.1264 225.992 34.1264H228.818L232.169 28.4223L231.084 26.5736C230.84 26.1523 230.948 25.5969 231.367 25.332C231.47 25.2652 231.586 25.22 231.707 25.1991C231.829 25.1782 231.953 25.182 232.073 25.2103C232.192 25.2386 232.305 25.2908 232.404 25.3637C232.503 25.4367 232.586 25.529 232.649 25.635L233.229 26.6258H233.235L233.816 25.635C233.878 25.5295 233.961 25.4378 234.06 25.3652C234.159 25.2925 234.271 25.2405 234.39 25.2123C234.51 25.184 234.633 25.18 234.754 25.2006C234.875 25.2212 234.991 25.2659 235.094 25.332C235.51 25.5969 235.618 26.1523 235.371 26.5754L234.286 28.424L233.232 30.2223L230.941 34.1281V34.1346H234.317C234.74 34.1346 235.27 34.3619 235.485 34.7275L235.503 34.7656C235.693 35.0873 235.8 35.3082 235.8 35.6299C235.797 35.7343 235.773 35.8372 235.731 35.9328L235.729 35.9311ZM240.285 35.9375H238.697V35.9439L239.858 37.9191C239.983 38.1272 240.021 38.3759 239.964 38.6118C239.908 38.8478 239.761 39.052 239.555 39.1807C239.412 39.2676 239.249 39.3136 239.082 39.3137C238.923 39.3136 238.767 39.2724 238.629 39.1942C238.49 39.116 238.375 39.0033 238.293 38.8672L236.577 35.9457L235.51 34.1293L234.135 31.7773C233.935 31.4415 233.827 31.0596 233.82 30.6691C233.814 30.2787 233.909 29.8932 234.096 29.5508C234.368 29.0709 234.576 28.9449 234.576 28.9449L237.637 34.1211H240.268C240.76 34.1211 241.183 34.4996 241.206 34.9854C241.21 35.1088 241.19 35.232 241.146 35.3475C241.102 35.4629 241.035 35.5683 240.949 35.6572C240.863 35.7462 240.761 35.8169 240.647 35.865C240.533 35.9132 240.41 35.9378 240.287 35.9375H240.285Z" fill="white"/>
</svg>
