<svg width="70" height="163" viewBox="0 0 675 163" fill="none" xmlns="http://www.w3.org/2000/svg">
<path d="M606.285 61.879L562.417 6.56723L562.406 6.553L562.394 6.53905C559.97 3.6305 556.955 2.08252 553.408 2.08252C550.206 2.08252 547.371 3.3644 544.949 5.78586L546.01 6.84652L544.949 5.78586C542.65 8.08491 541.463 10.855 541.463 14.0273C541.463 16.9907 542.459 19.5912 544.437 21.7519L591.302 79.9591L542.014 141.034L542.01 141.039C540.1 143.426 539.07 145.995 539.07 148.722C539.07 151.924 540.352 154.759 542.773 157.181L542.791 157.199L542.81 157.217C545.24 159.484 548.064 160.667 551.232 160.667C554.657 160.667 557.594 159.098 560.001 156.21L560.011 156.198L560.02 156.186L606.282 98.2522L652.33 156.183L652.341 156.197L652.352 156.21C654.776 159.119 657.791 160.667 661.338 160.667C664.506 160.667 667.33 159.484 669.76 157.217L669.779 157.199L669.797 157.181C672.218 154.759 673.5 151.924 673.5 148.722C673.5 145.846 672.393 143.258 670.308 140.996L621.266 79.9611L668.132 21.7538C670.217 19.4919 671.324 16.9029 671.324 14.0273C671.324 10.8279 670.043 8.05364 667.603 5.76771C665.185 3.358 662.356 2.08252 659.162 2.08252C655.491 2.08252 652.451 3.61539 650.149 6.57265C650.147 6.57457 650.146 6.57649 650.144 6.57841L606.285 61.879Z" fill="#E37A18" stroke="white" stroke-width="3"/>
<path d="M5.47961 156.271L5.51741 156.311L5.55813 156.349C7.93267 158.554 11.0885 159.579 14.8476 159.579H57.4972C82.5736 159.579 102.217 152.827 116.21 139.131L116.216 139.126C130.209 125.282 137.116 105.924 137.116 81.2658C137.116 56.6088 130.21 37.3189 116.21 23.6177C102.217 9.92217 82.5736 3.17052 57.4972 3.17052H14.8476C11.0582 3.17052 7.88824 4.28617 5.51814 6.65626C3.28427 8.89013 2.25 11.9216 2.25 15.5505V147.199C2.25 150.832 3.28549 153.908 5.47961 156.271ZM245.849 148.504V54.1852L285.893 129.191L285.898 129.201C288.818 134.579 292.797 137.601 297.879 137.601C302.962 137.601 306.94 134.579 309.86 129.201L309.865 129.192L309.869 129.183L349.691 53.3995V148.504C349.691 152.101 350.634 155.117 352.7 157.355C354.778 159.606 357.603 160.667 360.983 160.667C364.473 160.667 367.374 159.628 369.463 157.377C371.683 155.146 372.71 152.122 372.71 148.504V14.8977C372.71 11.2424 371.588 8.15981 369.243 5.80428C366.909 3.31319 363.895 2.08252 360.33 2.08252C355.226 2.08252 351.251 5.20358 348.341 10.716L348.336 10.7256L298.091 107.612L247.419 10.721L247.417 10.716C244.496 5.18097 240.441 2.08252 235.21 2.08252C231.646 2.08252 228.632 3.31321 226.298 5.80434C223.952 8.15986 222.83 11.2425 222.83 14.8977V148.504C222.83 151.981 223.786 154.961 225.803 157.314L225.84 157.358L225.881 157.398C228.089 159.606 230.957 160.667 234.34 160.667C237.841 160.667 240.749 159.621 242.84 157.355C244.906 155.117 245.849 152.101 245.849 148.504ZM408.805 156.271L408.843 156.311L408.883 156.349C411.258 158.554 414.414 159.579 418.173 159.579H498.25C501.794 159.579 504.745 158.734 506.857 156.811C509.124 154.881 510.195 152.186 510.195 148.939C510.195 145.667 509.226 142.96 507.058 141.108C504.935 139.294 501.91 138.518 498.25 138.518H430.553V90.817H493.898C497.442 90.817 500.393 89.9725 502.505 88.0494C504.772 86.1192 505.843 83.4244 505.843 80.1778C505.843 76.9311 504.773 74.2365 502.505 72.3062C500.393 70.3831 497.442 69.5386 493.898 69.5386H430.553V24.2313H498.25C501.776 24.2313 504.714 23.468 506.826 21.7077L506.835 21.7004C509.117 19.7688 510.195 17.067 510.195 13.8097C510.195 10.5632 509.125 7.86856 506.857 5.93831C504.745 4.01511 501.794 3.17052 498.25 3.17052H418.173C414.383 3.17052 411.214 4.28617 408.843 6.65626C406.61 8.89013 405.575 11.9216 405.575 15.5505V147.199C405.575 150.832 406.611 153.908 408.805 156.271ZM111.268 81.2658C111.268 100.411 106.607 114.492 97.549 123.794C88.4986 133.088 74.8088 137.865 56.1916 137.865H27.6628V24.8841H56.1916C74.8103 24.8841 88.5008 29.644 97.551 38.903C106.607 48.1684 111.268 62.1946 111.268 81.2658ZM168.086 157.181C170.444 159.539 173.533 160.667 177.198 160.667C181.095 160.667 184.297 159.57 186.547 157.161C188.903 154.793 190.013 151.63 190.013 147.851V14.8977C190.013 11.1084 188.897 7.93835 186.527 5.56826C184.157 3.19817 180.987 2.08252 177.198 2.08252C173.51 2.08252 170.416 3.29854 168.068 5.80393C165.722 8.1595 164.6 11.2423 164.6 14.8977V147.851C164.6 151.641 165.716 154.811 168.086 157.181Z" fill="#271B5D" stroke="white" stroke-width="3"/>
</svg>
