<svg width="681" height="65" viewBox="0 0 681 65" fill="none" xmlns="http://www.w3.org/2000/svg">
<path d="M29.8 61.64C24.4667 61.64 19.8267 60.4667 15.88 58.12C11.9867 55.7733 8.97333 52.44 6.84 48.12C4.70667 43.8 3.64 38.7067 3.64 32.84C3.64 26.92 4.68 21.8 6.76 17.48C8.89333 13.1067 11.9333 9.77333 15.88 7.48C19.8267 5.13333 24.4667 3.96 29.8 3.96C35.1867 3.96 39.8533 5.13333 43.8 7.48C47.7467 9.77333 50.76 13.1067 52.84 17.48C54.9733 21.8 56.04 26.8933 56.04 32.76C56.04 38.6267 54.9733 43.7467 52.84 48.12C50.76 52.44 47.7467 55.7733 43.8 58.12C39.8533 60.4667 35.1867 61.64 29.8 61.64ZM29.8 54.92C35.4533 54.92 39.8533 53 43 49.16C46.1467 45.32 47.72 39.8533 47.72 32.76C47.72 25.6667 46.1467 20.2267 43 16.44C39.9067 12.6 35.5067 10.68 29.8 10.68C24.2 10.68 19.8267 12.6 16.68 16.44C13.5867 20.2267 12.04 25.6667 12.04 32.76C12.04 39.8533 13.5867 45.32 16.68 49.16C19.8267 53 24.2 54.92 29.8 54.92ZM71.3588 61.4C70.1321 61.4 69.1454 61.0267 68.3988 60.28C67.6521 59.5333 67.2788 58.52 67.2788 57.24V8.6C67.2788 7.37333 67.6254 6.41333 68.3188 5.72C69.0654 4.97333 70.0788 4.6 71.3588 4.6H90.6388C96.6121 4.6 101.252 6.06666 104.559 9C107.865 11.9333 109.519 16.0933 109.519 21.48C109.519 26.8133 107.865 30.9733 104.559 33.96C101.252 36.9467 96.6121 38.44 90.6388 38.44H75.5188V57.24C75.5188 58.52 75.1454 59.5333 74.3988 60.28C73.7054 61.0267 72.6921 61.4 71.3588 61.4ZM89.7588 31.8C97.6521 31.8 101.599 28.36 101.599 21.48C101.599 14.6533 97.6521 11.24 89.7588 11.24H75.5188V31.8H89.7588ZM135.66 61.4C134.433 61.4 133.42 61.0267 132.62 60.28C131.873 59.48 131.5 58.4667 131.5 57.24V11.48H115.5C112.94 11.48 111.66 10.3333 111.66 8.04C111.66 6.92 111.98 6.06667 112.62 5.48C113.313 4.89333 114.273 4.6 115.5 4.6H155.82C157.047 4.6 157.98 4.89333 158.62 5.48C159.313 6.06667 159.66 6.92 159.66 8.04C159.66 10.3333 158.38 11.48 155.82 11.48H139.82V57.24C139.82 58.4667 139.447 59.48 138.7 60.28C137.953 61.0267 136.94 61.4 135.66 61.4ZM170.578 61.4C169.351 61.4 168.364 61.0267 167.618 60.28C166.871 59.5333 166.498 58.52 166.498 57.24V8.36C166.498 7.13333 166.871 6.14666 167.618 5.4C168.364 4.6 169.351 4.2 170.578 4.2C171.858 4.2 172.871 4.57333 173.618 5.32C174.364 6.06666 174.738 7.08 174.738 8.36V57.24C174.738 58.52 174.364 59.5333 173.618 60.28C172.924 61.0267 171.911 61.4 170.578 61.4ZM212.066 61.64C206.732 61.64 202.092 60.4667 198.146 58.12C194.252 55.7733 191.239 52.44 189.106 48.12C186.972 43.8 185.906 38.7067 185.906 32.84C185.906 26.92 186.946 21.8 189.026 17.48C191.159 13.1067 194.199 9.77333 198.146 7.48C202.092 5.13333 206.732 3.96 212.066 3.96C217.452 3.96 222.119 5.13333 226.066 7.48C230.012 9.77333 233.026 13.1067 235.106 17.48C237.239 21.8 238.306 26.8933 238.306 32.76C238.306 38.6267 237.239 43.7467 235.106 48.12C233.026 52.44 230.012 55.7733 226.066 58.12C222.119 60.4667 217.452 61.64 212.066 61.64ZM212.066 54.92C217.719 54.92 222.119 53 225.266 49.16C228.412 45.32 229.986 39.8533 229.986 32.76C229.986 25.6667 228.412 20.2267 225.266 16.44C222.172 12.6 217.772 10.68 212.066 10.68C206.466 10.68 202.092 12.6 198.946 16.44C195.852 20.2267 194.306 25.6667 194.306 32.76C194.306 39.8533 195.852 45.32 198.946 49.16C202.092 53 206.466 54.92 212.066 54.92ZM291.944 4.2C293.118 4.2 294.051 4.6 294.744 5.4C295.491 6.14666 295.864 7.13333 295.864 8.36V57.24C295.864 58.4667 295.491 59.48 294.744 60.28C293.998 61.0267 293.038 61.4 291.864 61.4C290.478 61.4 289.411 60.8667 288.664 59.8L257.304 18.44V57.24C257.304 58.4667 256.931 59.48 256.184 60.28C255.491 61.0267 254.558 61.4 253.384 61.4C252.211 61.4 251.278 61.0267 250.584 60.28C249.891 59.5333 249.544 58.52 249.544 57.24V8.36C249.544 7.13333 249.918 6.14666 250.664 5.4C251.411 4.6 252.371 4.2 253.544 4.2C254.931 4.2 255.998 4.73333 256.744 5.8L288.104 47.24V8.36C288.104 7.13333 288.451 6.14666 289.144 5.4C289.838 4.6 290.771 4.2 291.944 4.2ZM327.638 61.64C323.584 61.64 319.718 61.08 316.038 59.96C312.411 58.84 309.504 57.2933 307.318 55.32C306.304 54.4667 305.798 53.3733 305.798 52.04C305.798 51.08 306.064 50.28 306.598 49.64C307.131 48.9467 307.771 48.6 308.518 48.6C309.264 48.6 310.171 48.9467 311.238 49.64C315.984 53.16 321.398 54.92 327.478 54.92C331.744 54.92 335.024 54.12 337.318 52.52C339.611 50.92 340.758 48.6267 340.758 45.64C340.758 43.2933 339.691 41.5333 337.558 40.36C335.424 39.1867 332.011 38.0667 327.318 37C322.838 36.04 319.158 34.9467 316.278 33.72C313.398 32.4933 311.131 30.84 309.478 28.76C307.878 26.6267 307.078 23.9333 307.078 20.68C307.078 17.4267 307.958 14.5467 309.718 12.04C311.531 9.48 314.038 7.50666 317.238 6.12C320.438 4.68 324.091 3.96 328.198 3.96C331.984 3.96 335.478 4.49333 338.678 5.56C341.878 6.62666 344.598 8.2 346.838 10.28C347.904 11.1867 348.438 12.28 348.438 13.56C348.438 14.4667 348.144 15.2667 347.558 15.96C347.024 16.6533 346.384 17 345.638 17C344.944 17 344.064 16.6533 342.998 15.96C340.544 14.0933 338.224 12.76 336.038 11.96C333.904 11.1067 331.318 10.68 328.278 10.68C324.171 10.68 320.971 11.5333 318.678 13.24C316.384 14.8933 315.238 17.2133 315.238 20.2C315.238 22.76 316.251 24.7067 318.278 26.04C320.304 27.32 323.558 28.4933 328.038 29.56C332.731 30.6267 336.518 31.7467 339.398 32.92C342.331 34.04 344.651 35.6133 346.358 37.64C348.118 39.6133 348.998 42.1733 348.998 45.32C348.998 48.52 348.091 51.3733 346.278 53.88C344.518 56.3333 342.011 58.2533 338.758 59.64C335.558 60.9733 331.851 61.64 327.638 61.64ZM384.247 61C383.021 61 382.034 60.6533 381.288 59.96C380.594 59.2667 380.248 58.3333 380.248 57.16V8.36C380.248 7.13333 380.621 6.14666 381.368 5.4C382.114 4.6 383.101 4.2 384.328 4.2C385.608 4.2 386.621 4.57333 387.368 5.32C388.114 6.06666 388.488 7.08 388.488 8.36V54.12H412.808C414.034 54.12 414.968 54.4133 415.608 55C416.301 55.5867 416.648 56.44 416.648 57.56C416.648 58.68 416.301 59.5333 415.608 60.12C414.968 60.7067 414.034 61 412.808 61H384.247ZM428.078 61.4C426.851 61.4 425.864 61.0267 425.118 60.28C424.371 59.5333 423.998 58.52 423.998 57.24V8.36C423.998 7.13333 424.371 6.14666 425.118 5.4C425.864 4.6 426.851 4.2 428.078 4.2C429.358 4.2 430.371 4.57333 431.118 5.32C431.864 6.06666 432.238 7.08 432.238 8.36V57.24C432.238 58.52 431.864 59.5333 431.118 60.28C430.424 61.0267 429.411 61.4 428.078 61.4ZM495.406 4.2C496.579 4.2 497.539 4.6 498.286 5.4C499.032 6.14666 499.406 7.13333 499.406 8.36V57.48C499.406 58.7067 499.059 59.6667 498.366 60.36C497.726 61.0533 496.819 61.4 495.646 61.4C494.526 61.4 493.646 61.0533 493.006 60.36C492.366 59.6667 492.046 58.7067 492.046 57.48V20.28L476.366 50.12C475.352 51.9867 474.046 52.92 472.446 52.92C470.846 52.92 469.539 51.9867 468.526 50.12L452.766 20.6V57.48C452.766 58.7067 452.446 59.6667 451.806 60.36C451.166 61.0533 450.259 61.4 449.086 61.4C447.966 61.4 447.059 61.0533 446.366 60.36C445.726 59.6133 445.406 58.6533 445.406 57.48V8.36C445.406 7.13333 445.779 6.14666 446.526 5.4C447.272 4.6 448.232 4.2 449.406 4.2C451.059 4.2 452.392 5.16 453.406 7.08L472.526 43.64L491.486 7.08C492.499 5.16 493.806 4.2 495.406 4.2ZM516.671 61.4C515.445 61.4 514.458 61.0267 513.711 60.28C512.965 59.5333 512.591 58.52 512.591 57.24V8.36C512.591 7.13333 512.965 6.14666 513.711 5.4C514.458 4.6 515.445 4.2 516.671 4.2C517.951 4.2 518.965 4.57333 519.711 5.32C520.458 6.06666 520.831 7.08 520.831 8.36V57.24C520.831 58.52 520.458 59.5333 519.711 60.28C519.018 61.0267 518.005 61.4 516.671 61.4ZM551.519 61.4C550.293 61.4 549.279 61.0267 548.479 60.28C547.733 59.48 547.359 58.4667 547.359 57.24V11.48H531.359C528.799 11.48 527.519 10.3333 527.519 8.04C527.519 6.92 527.839 6.06667 528.479 5.48C529.173 4.89333 530.133 4.6 531.359 4.6H571.679C572.906 4.6 573.839 4.89333 574.479 5.48C575.173 6.06667 575.519 6.92 575.519 8.04C575.519 10.3333 574.239 11.48 571.679 11.48H555.679V57.24C555.679 58.4667 555.306 59.48 554.559 60.28C553.813 61.0267 552.799 61.4 551.519 61.4ZM586.437 61C585.157 61 584.144 60.6533 583.397 59.96C582.704 59.2133 582.357 58.2267 582.357 57V8.6C582.357 7.37333 582.704 6.41333 583.397 5.72C584.144 4.97333 585.157 4.6 586.437 4.6H615.877C617.104 4.6 618.037 4.89333 618.677 5.48C619.37 6.06667 619.717 6.89333 619.717 7.96C619.717 9.02667 619.37 9.85333 618.677 10.44C618.037 10.9733 617.104 11.24 615.877 11.24H590.437V29H614.277C615.504 29 616.437 29.2933 617.077 29.88C617.77 30.4667 618.117 31.2933 618.117 32.36C618.117 33.4267 617.77 34.2533 617.077 34.84C616.437 35.4267 615.504 35.72 614.277 35.72H590.437V54.36H615.877C618.437 54.36 619.717 55.4533 619.717 57.64C619.717 58.7067 619.37 59.5333 618.677 60.12C618.037 60.7067 617.104 61 615.877 61H586.437ZM633.234 61C631.954 61 630.94 60.6533 630.194 59.96C629.5 59.2133 629.154 58.2267 629.154 57V8.6C629.154 7.37333 629.5 6.41333 630.194 5.72C630.94 4.97333 631.954 4.6 633.234 4.6H648.914C658.034 4.6 665.1 7.05333 670.114 11.96C675.127 16.8667 677.634 23.8 677.634 32.76C677.634 41.72 675.127 48.68 670.114 53.64C665.1 58.5467 658.034 61 648.914 61H633.234ZM648.434 54.12C662.3 54.12 669.234 47 669.234 32.76C669.234 18.5733 662.3 11.48 648.434 11.48H637.394V54.12H648.434Z" fill="black"/>
<path d="M15.88 58.12L14.3313 60.6894L14.339 60.694L14.3468 60.6986L15.88 58.12ZM6.84 48.12L4.15011 49.4483L6.84 48.12ZM6.76 17.48L4.06369 16.1647L4.06033 16.1716L4.057 16.1786L6.76 17.48ZM15.88 7.48L17.3873 10.0739L17.4003 10.0663L17.4132 10.0586L15.88 7.48ZM43.8 7.48L42.2668 10.0586L42.2797 10.0663L42.2927 10.0739L43.8 7.48ZM52.84 17.48L50.1308 18.7685L50.1403 18.7885L50.1501 18.8083L52.84 17.48ZM52.84 48.12L50.1437 46.8047L50.1403 46.8116L50.137 46.8186L52.84 48.12ZM43.8 58.12L42.2668 55.5414L43.8 58.12ZM43 49.16L40.6796 47.2585L43 49.16ZM43 16.44L40.6637 18.322L40.6781 18.3398L40.6927 18.3574L43 16.44ZM16.68 16.44L14.3596 14.5385L14.3567 14.5421L16.68 16.44ZM16.68 49.16L14.3437 51.042L14.3516 51.0518L14.3596 51.0615L16.68 49.16ZM29.8 58.64C24.918 58.64 20.8255 57.5703 17.4132 55.5414L14.3468 60.6986C18.8278 63.363 24.0154 64.64 29.8 64.64V58.64ZM17.4287 55.5506C14.0565 53.5181 11.4252 50.6297 9.52989 46.7917L4.15011 49.4483C6.52147 54.2503 9.91685 58.0286 14.3313 60.6894L17.4287 55.5506ZM9.52989 46.7917C7.64017 42.965 6.64 38.3447 6.64 32.84H0.64C0.64 39.0687 1.77316 44.635 4.15011 49.4483L9.52989 46.7917ZM6.64 32.84C6.64 27.2671 7.6189 22.6115 9.46301 18.7814L4.057 16.1786C1.7411 20.9885 0.64 26.5729 0.64 32.84H6.64ZM9.45631 18.7953C11.3469 14.9195 13.9895 12.0482 17.3873 10.0739L14.3727 4.88612C9.87716 7.49842 6.43974 11.2938 4.06369 16.1647L9.45631 18.7953ZM17.4132 10.0586C20.8255 8.02966 24.918 6.96 29.8 6.96V0.959995C24.0154 0.959995 18.8278 2.237 14.3468 4.90139L17.4132 10.0586ZM29.8 6.96C34.7414 6.96 38.8589 8.03232 42.2668 10.0586L45.3332 4.90139C40.8477 2.23434 35.6319 0.959995 29.8 0.959995V6.96ZM42.2927 10.0739C45.6837 12.0443 48.294 14.9064 50.1308 18.7685L55.5492 16.1915C53.226 11.3069 49.8097 7.5024 45.3073 4.88612L42.2927 10.0739ZM50.1501 18.8083C52.0398 22.635 53.04 27.2553 53.04 32.76H59.04C59.04 26.5313 57.9068 20.965 55.5299 16.1517L50.1501 18.8083ZM53.04 32.76C53.04 38.2633 52.0403 42.9168 50.1437 46.8047L55.5363 49.4353C57.9064 44.5766 59.04 38.99 59.04 32.76H53.04ZM50.137 46.8186C48.3009 50.6319 45.6833 53.51 42.2668 55.5414L45.3332 60.6986C49.8101 58.0367 53.2191 54.2481 55.543 49.4214L50.137 46.8186ZM42.2668 55.5414C38.8589 57.5677 34.7414 58.64 29.8 58.64V64.64C35.6319 64.64 40.8477 63.3657 45.3332 60.6986L42.2668 55.5414ZM29.8 57.92C36.2121 57.92 41.5207 55.6985 45.3204 51.0615L40.6796 47.2585C38.186 50.3015 34.6946 51.92 29.8 51.92V57.92ZM45.3204 51.0615C49.0611 46.4966 50.72 40.2556 50.72 32.76H44.72C44.72 39.4511 43.2322 44.1434 40.6796 47.2585L45.3204 51.0615ZM50.72 32.76C50.72 25.2681 49.0626 19.0417 45.3073 14.5226L40.6927 18.3574C43.2307 21.4116 44.72 26.0652 44.72 32.76H50.72ZM45.3363 14.558C41.58 9.89501 36.2542 7.68 29.8 7.68V13.68C34.7592 13.68 38.2334 15.305 40.6637 18.322L45.3363 14.558ZM29.8 7.68C23.4307 7.68 18.1535 9.90867 14.3596 14.5385L19.0004 18.3415C21.4999 15.2913 24.9693 13.68 29.8 13.68V7.68ZM14.3567 14.5421C10.6661 19.0599 9.04 25.2783 9.04 32.76H15.04C15.04 26.055 16.5073 21.3935 19.0033 18.3379L14.3567 14.5421ZM9.04 32.76C9.04 40.2454 10.6676 46.4785 14.3437 51.042L19.0163 47.278C16.5057 44.1615 15.04 39.4612 15.04 32.76H9.04ZM14.3596 51.0615C18.1535 55.6913 23.4307 57.92 29.8 57.92V51.92C24.9693 51.92 21.4999 50.3087 19.0004 47.2585L14.3596 51.0615ZM68.3988 60.28L66.2774 62.4013L68.3988 60.28ZM68.3187 5.72L66.1974 3.59868H66.1974L68.3187 5.72ZM104.559 9L106.55 6.75577L104.559 9ZM104.559 33.96L102.548 31.7337L104.559 33.96ZM75.5188 38.44V35.44H72.5188V38.44H75.5188ZM74.3988 60.28L72.2774 58.1587L72.2382 58.198L72.2004 58.2386L74.3988 60.28ZM75.5188 11.24V8.24H72.5188V11.24H75.5188ZM75.5188 31.8H72.5188V34.8H75.5188V31.8ZM71.3587 58.4C70.7887 58.4 70.6129 58.2515 70.5201 58.1587L66.2774 62.4013C67.678 63.8018 69.4755 64.4 71.3587 64.4V58.4ZM70.5201 58.1587C70.4517 58.0903 70.2787 57.9045 70.2787 57.24H64.2787C64.2787 59.1355 64.8524 60.9763 66.2774 62.4013L70.5201 58.1587ZM70.2787 57.24V8.6H64.2787V57.24H70.2787ZM70.2787 8.6C70.2787 8.26595 70.3262 8.07372 70.3604 7.97893C70.3904 7.89594 70.4178 7.86357 70.4401 7.84132L66.1974 3.59868C64.8081 4.98801 64.2787 6.7886 64.2787 8.6H70.2787ZM70.4401 7.84132C70.5084 7.77297 70.6943 7.6 71.3587 7.6V1.6C69.4632 1.6 67.6224 2.17369 66.1974 3.59868L70.4401 7.84132ZM71.3587 7.6H90.6387V1.6H71.3587V7.6ZM90.6387 7.6C96.1388 7.6 99.9779 8.94659 102.568 11.2442L106.55 6.75577C102.526 3.18674 97.0854 1.6 90.6387 1.6V7.6ZM102.568 11.2442C105.095 13.4857 106.519 16.7476 106.519 21.48H112.519C112.519 15.4391 110.636 10.381 106.55 6.75577L102.568 11.2442ZM106.519 21.48C106.519 26.1467 105.101 29.4274 102.548 31.7337L106.57 36.1863C110.63 32.5193 112.519 27.4799 112.519 21.48H106.519ZM102.548 31.7337C99.9574 34.0735 96.1261 35.44 90.6387 35.44V41.44C97.0981 41.44 102.547 39.8199 106.57 36.1863L102.548 31.7337ZM90.6387 35.44H75.5188V41.44H90.6387V35.44ZM72.5188 38.44V57.24H78.5188V38.44H72.5188ZM72.5188 57.24C72.5188 57.9045 72.3458 58.0903 72.2774 58.1587L76.5201 62.4013C77.9451 60.9763 78.5188 59.1355 78.5188 57.24H72.5188ZM72.2004 58.2386C72.1938 58.2458 72.173 58.2713 72.0816 58.305C71.9747 58.3444 71.7516 58.4 71.3587 58.4V64.4C73.2554 64.4 75.1749 63.853 76.5971 62.3214L72.2004 58.2386ZM89.7588 34.8C94.0744 34.8 97.8714 33.8685 100.61 31.4815C103.427 29.0259 104.599 25.4979 104.599 21.48H98.5988C98.5988 24.3421 97.7969 25.9741 96.6676 26.9585C95.4594 28.0115 93.3364 28.8 89.7588 28.8V34.8ZM104.599 21.48C104.599 17.4815 103.423 13.9711 100.601 11.5309C97.863 9.16275 94.0697 8.24 89.7588 8.24V14.24C93.3411 14.24 95.4678 15.0239 96.6763 16.0691C97.8015 17.0422 98.5988 18.6518 98.5988 21.48H104.599ZM89.7588 8.24H75.5188V14.24H89.7588V8.24ZM72.5188 11.24V31.8H78.5188V11.24H72.5188ZM75.5188 34.8H89.7588V28.8H75.5188V34.8ZM132.62 60.28L130.427 62.327L130.497 62.4026L130.573 62.4732L132.62 60.28ZM131.5 11.48H134.5V8.48H131.5V11.48ZM112.62 5.48L110.682 3.18984L110.637 3.2283L110.593 3.26854L112.62 5.48ZM158.62 5.48L156.593 7.69146L156.637 7.7317L156.682 7.77016L158.62 5.48ZM139.82 11.48V8.48H136.82V11.48H139.82ZM138.7 60.28L140.821 62.4013L140.858 62.3648L140.893 62.327L138.7 60.28ZM135.66 58.4C135.094 58.4 134.843 58.251 134.667 58.0868L130.573 62.4732C131.997 63.8024 133.773 64.4 135.66 64.4V58.4ZM134.813 58.233C134.649 58.0572 134.5 57.8062 134.5 57.24H128.5C128.5 59.1272 129.098 60.9028 130.427 62.327L134.813 58.233ZM134.5 57.24V11.48H128.5V57.24H134.5ZM131.5 8.48H115.5V14.48H131.5V8.48ZM115.5 8.48C114.606 8.48 114.496 8.27263 114.622 8.38549C114.689 8.44533 114.714 8.50471 114.712 8.4988C114.703 8.47539 114.66 8.34184 114.66 8.04H108.66C108.66 9.73964 109.149 11.5387 110.618 12.8545C112.024 14.114 113.834 14.48 115.5 14.48V8.48ZM114.66 8.04C114.66 7.76015 114.701 7.63596 114.709 7.61337C114.713 7.60352 114.71 7.6133 114.696 7.6341C114.682 7.65541 114.664 7.67573 114.647 7.69146L110.593 3.26854C109.165 4.57729 108.66 6.33753 108.66 8.04H114.66ZM114.558 7.77015C114.562 7.76623 114.605 7.72933 114.737 7.68905C114.878 7.64595 115.12 7.6 115.5 7.6V1.6C113.813 1.6 112.081 2.00591 110.682 3.18984L114.558 7.77015ZM115.5 7.6H155.82V1.6H115.5V7.6ZM155.82 7.6C156.605 7.6 156.698 7.78813 156.593 7.69146L160.647 3.26854C159.262 1.99854 157.488 1.6 155.82 1.6V7.6ZM156.682 7.77016C156.674 7.76321 156.659 7.74819 156.643 7.72647C156.636 7.71644 156.63 7.70732 156.626 7.69997C156.622 7.69267 156.62 7.68869 156.621 7.68913C156.621 7.68959 156.63 7.71333 156.64 7.76908C156.65 7.82568 156.66 7.91396 156.66 8.04H162.66C162.66 6.26194 162.079 4.47709 160.558 3.18984L156.682 7.77016ZM156.66 8.04C156.66 8.34184 156.617 8.47539 156.608 8.4988C156.606 8.50471 156.631 8.44533 156.698 8.38549C156.824 8.27263 156.714 8.48 155.82 8.48V14.48C157.486 14.48 159.296 14.114 160.702 12.8545C162.171 11.5387 162.66 9.73964 162.66 8.04H156.66ZM155.82 8.48H139.82V14.48H155.82V8.48ZM136.82 11.48V57.24H142.82V11.48H136.82ZM136.82 57.24C136.82 57.8062 136.671 58.0572 136.507 58.233L140.893 62.327C142.222 60.9028 142.82 59.1272 142.82 57.24H136.82ZM136.579 58.1587C136.51 58.227 136.324 58.4 135.66 58.4V64.4C137.556 64.4 139.396 63.8263 140.821 62.4013L136.579 58.1587ZM167.617 60.28L165.496 62.4013L167.617 60.28ZM167.617 5.4L169.739 7.52132L169.775 7.48475L169.811 7.44695L167.617 5.4ZM173.617 60.28L171.496 58.1587L171.457 58.198L171.419 58.2386L173.617 60.28ZM170.577 58.4C170.007 58.4 169.832 58.2515 169.739 58.1587L165.496 62.4013C166.897 63.8018 168.694 64.4 170.577 64.4V58.4ZM169.739 58.1587C169.67 58.0903 169.497 57.9045 169.497 57.24H163.497C163.497 59.1355 164.071 60.9763 165.496 62.4013L169.739 58.1587ZM169.497 57.24V8.36H163.497V57.24H169.497ZM169.497 8.36C169.497 7.7899 169.646 7.61412 169.739 7.52132L165.496 3.27868C164.096 4.6792 163.497 6.47676 163.497 8.36H169.497ZM169.811 7.44695C169.918 7.33159 170.071 7.2 170.577 7.2V1.2C168.63 1.2 166.81 1.8684 165.424 3.35304L169.811 7.44695ZM170.577 7.2C171.242 7.2 171.428 7.37297 171.496 7.44132L175.739 3.19868C174.314 1.77369 172.473 1.2 170.577 1.2V7.2ZM171.496 7.44132C171.565 7.50967 171.738 7.69553 171.738 8.36H177.738C177.738 6.46446 177.164 4.62366 175.739 3.19868L171.496 7.44132ZM171.738 8.36V57.24H177.738V8.36H171.738ZM171.738 57.24C171.738 57.9045 171.565 58.0903 171.496 58.1587L175.739 62.4013C177.164 60.9763 177.738 59.1355 177.738 57.24H171.738ZM171.419 58.2386C171.413 58.2458 171.392 58.2713 171.3 58.305C171.193 58.3444 170.97 58.4 170.577 58.4V64.4C172.474 64.4 174.394 63.853 175.816 62.3214L171.419 58.2386ZM198.146 58.12L196.597 60.6894L196.605 60.694L196.612 60.6986L198.146 58.12ZM189.106 48.12L186.416 49.4483L189.106 48.12ZM189.026 17.48L186.329 16.1647L186.326 16.1716L186.323 16.1786L189.026 17.48ZM198.146 7.48L199.653 10.0739L199.666 10.0663L199.679 10.0586L198.146 7.48ZM226.066 7.48L224.532 10.0586L224.545 10.0663L224.558 10.0739L226.066 7.48ZM235.106 17.48L232.396 18.7685L232.406 18.7885L232.416 18.8083L235.106 17.48ZM235.106 48.12L232.409 46.8047L232.406 46.8116L232.403 46.8186L235.106 48.12ZM226.066 58.12L224.532 55.5414L226.066 58.12ZM225.266 49.16L222.945 47.2585L225.266 49.16ZM225.266 16.44L222.929 18.322L222.944 18.3398L222.958 18.3574L225.266 16.44ZM198.946 16.44L196.625 14.5385L196.622 14.5421L198.946 16.44ZM198.946 49.16L196.609 51.042L196.617 51.0518L196.625 51.0615L198.946 49.16ZM212.066 58.64C207.184 58.64 203.091 57.5703 199.679 55.5414L196.612 60.6986C201.093 63.363 206.281 64.64 212.066 64.64V58.64ZM199.694 55.5506C196.322 53.5181 193.691 50.6297 191.796 46.7917L186.416 49.4483C188.787 54.2503 192.182 58.0286 196.597 60.6894L199.694 55.5506ZM191.796 46.7917C189.906 42.965 188.906 38.3447 188.906 32.84H182.906C182.906 39.0687 184.039 44.635 186.416 49.4483L191.796 46.7917ZM188.906 32.84C188.906 27.2671 189.885 22.6115 191.729 18.7814L186.323 16.1786C184.007 20.9885 182.906 26.5729 182.906 32.84H188.906ZM191.722 18.7953C193.613 14.9195 196.255 12.0482 199.653 10.0739L196.638 4.88612C192.143 7.49842 188.705 11.2938 186.329 16.1647L191.722 18.7953ZM199.679 10.0586C203.091 8.02966 207.184 6.96 212.066 6.96V0.959995C206.281 0.959995 201.093 2.237 196.612 4.90139L199.679 10.0586ZM212.066 6.96C217.007 6.96 221.125 8.03232 224.532 10.0586L227.599 4.90139C223.113 2.23434 217.898 0.959995 212.066 0.959995V6.96ZM224.558 10.0739C227.949 12.0443 230.56 14.9064 232.396 18.7685L237.815 16.1915C235.492 11.3069 232.075 7.5024 227.573 4.88612L224.558 10.0739ZM232.416 18.8083C234.305 22.635 235.306 27.2553 235.306 32.76H241.306C241.306 26.5313 240.172 20.965 237.796 16.1517L232.416 18.8083ZM235.306 32.76C235.306 38.2633 234.306 42.9168 232.409 46.8047L237.802 49.4353C240.172 44.5766 241.306 38.99 241.306 32.76H235.306ZM232.403 46.8186C230.567 50.6319 227.949 53.51 224.532 55.5414L227.599 60.6986C232.076 58.0367 235.485 54.2481 237.809 49.4214L232.403 46.8186ZM224.532 55.5414C221.125 57.5677 217.007 58.64 212.066 58.64V64.64C217.898 64.64 223.113 63.3657 227.599 60.6986L224.532 55.5414ZM212.066 57.92C218.478 57.92 223.786 55.6985 227.586 51.0615L222.945 47.2585C220.452 50.3015 216.96 51.92 212.066 51.92V57.92ZM227.586 51.0615C231.327 46.4966 232.986 40.2556 232.986 32.76H226.986C226.986 39.4511 225.498 44.1434 222.945 47.2585L227.586 51.0615ZM232.986 32.76C232.986 25.2681 231.328 19.0417 227.573 14.5226L222.958 18.3574C225.496 21.4116 226.986 26.0652 226.986 32.76H232.986ZM227.602 14.558C223.846 9.89501 218.52 7.68 212.066 7.68V13.68C217.025 13.68 220.499 15.305 222.929 18.322L227.602 14.558ZM212.066 7.68C205.696 7.68 200.419 9.90867 196.625 14.5385L201.266 18.3415C203.765 15.2913 207.235 13.68 212.066 13.68V7.68ZM196.622 14.5421C192.932 19.0599 191.306 25.2783 191.306 32.76H197.306C197.306 26.055 198.773 21.3935 201.269 18.3379L196.622 14.5421ZM191.306 32.76C191.306 40.2454 192.933 46.4785 196.609 51.042L201.282 47.278C198.771 44.1615 197.306 39.4612 197.306 32.76H191.306ZM196.625 51.0615C200.419 55.6913 205.696 57.92 212.066 57.92V51.92C207.235 51.92 203.765 50.3087 201.266 47.2585L196.625 51.0615ZM294.744 5.4L292.477 7.36479L292.547 7.44565L292.623 7.52132L294.744 5.4ZM294.744 60.28L296.866 62.4013L296.902 62.3648L296.938 62.327L294.744 60.28ZM288.664 59.8L291.122 58.0796L291.089 58.0329L291.055 57.9874L288.664 59.8ZM257.304 18.44L259.695 16.6274L254.304 9.51799V18.44H257.304ZM256.184 60.28L253.991 58.233L253.986 58.2386L256.184 60.28ZM250.584 60.28L252.783 58.2386L250.584 60.28ZM250.664 5.4L252.786 7.52132L252.822 7.48475L252.858 7.44695L250.664 5.4ZM256.744 5.8L254.287 7.52038L254.319 7.56596L254.352 7.61032L256.744 5.8ZM288.104 47.24L285.712 49.0503L291.104 56.1758V47.24H288.104ZM289.144 5.4L291.343 7.44135L291.378 7.40366L291.411 7.36479L289.144 5.4ZM291.944 7.2C292.187 7.2 292.303 7.24043 292.343 7.25743C292.374 7.27103 292.415 7.29268 292.477 7.36479L297.011 3.4352C295.682 1.90177 293.882 1.2 291.944 1.2V7.2ZM292.623 7.52132C292.716 7.61412 292.864 7.7899 292.864 8.36H298.864C298.864 6.47676 298.266 4.6792 296.866 3.27868L292.623 7.52132ZM292.864 8.36V57.24H298.864V8.36H292.864ZM292.864 57.24C292.864 57.8062 292.715 58.0572 292.551 58.233L296.938 62.327C298.267 60.9028 298.864 59.1272 298.864 57.24H292.864ZM292.623 58.1587C292.504 58.2777 292.339 58.4 291.864 58.4V64.4C293.736 64.4 295.491 63.7756 296.866 62.4013L292.623 58.1587ZM291.864 58.4C291.561 58.4 291.42 58.3437 291.366 58.3167C291.319 58.2933 291.236 58.2426 291.122 58.0796L286.207 61.5204C287.556 63.4486 289.574 64.4 291.864 64.4V58.4ZM291.055 57.9874L259.695 16.6274L254.914 20.2526L286.274 61.6125L291.055 57.9874ZM254.304 18.44V57.24H260.304V18.44H254.304ZM254.304 57.24C254.304 57.8062 254.155 58.0572 253.991 58.233L258.378 62.327C259.707 60.9028 260.304 59.1272 260.304 57.24H254.304ZM253.986 58.2386C253.948 58.2793 253.862 58.4 253.384 58.4V64.4C255.253 64.4 257.034 63.774 258.383 62.3214L253.986 58.2386ZM253.384 58.4C252.907 58.4 252.821 58.2793 252.783 58.2386L248.386 62.3214C249.735 63.774 251.516 64.4 253.384 64.4V58.4ZM252.783 58.2386C252.728 58.1792 252.544 57.9651 252.544 57.24H246.544C246.544 59.0749 247.055 60.8875 248.386 62.3214L252.783 58.2386ZM252.544 57.24V8.36H246.544V57.24H252.544ZM252.544 8.36C252.544 7.7899 252.693 7.61412 252.786 7.52132L248.543 3.27868C247.143 4.6792 246.544 6.47676 246.544 8.36H252.544ZM252.858 7.44695C252.993 7.30229 253.135 7.2 253.544 7.2V1.2C251.607 1.2 249.83 1.8977 248.471 3.35304L252.858 7.44695ZM253.544 7.2C253.848 7.2 253.989 7.25631 254.043 7.28328C254.09 7.30672 254.173 7.35742 254.287 7.52038L259.202 4.07961C257.852 2.15137 255.835 1.2 253.544 1.2V7.2ZM254.352 7.61032L285.712 49.0503L290.497 45.4297L259.137 3.98967L254.352 7.61032ZM291.104 47.24V8.36H285.104V47.24H291.104ZM291.104 8.36C291.104 7.72734 291.266 7.52409 291.343 7.44135L286.946 3.35864C285.636 4.76924 285.104 6.53931 285.104 8.36H291.104ZM291.411 7.36479C291.474 7.29268 291.514 7.27103 291.546 7.25743C291.586 7.24043 291.701 7.2 291.944 7.2V1.2C290.007 1.2 288.206 1.90177 286.877 3.4352L291.411 7.36479ZM316.038 59.96L315.152 62.8264L315.164 62.83L316.038 59.96ZM307.318 55.32L309.327 53.0928L309.289 53.0584L309.25 53.0253L307.318 55.32ZM306.598 49.64L308.902 51.5606L308.94 51.5156L308.975 51.4691L306.598 49.64ZM311.237 49.64L313.024 47.2303L312.95 47.1751L312.872 47.1247L311.237 49.64ZM337.557 40.36L336.112 42.9886L337.557 40.36ZM327.318 37L327.982 34.0746L327.964 34.0705L327.946 34.0666L327.318 37ZM309.478 28.76L307.078 30.56L307.103 30.5937L307.129 30.6267L309.478 28.76ZM309.717 12.04L307.269 10.3059L307.262 10.3161L309.717 12.04ZM317.237 6.12L318.43 8.87266L318.45 8.86435L318.469 8.85576L317.237 6.12ZM338.677 5.56L337.729 8.40605L338.677 5.56ZM346.837 10.28L344.796 12.4784L344.844 12.5232L344.895 12.5658L346.837 10.28ZM347.557 15.96L345.267 14.0222L345.222 14.0755L345.18 14.1309L347.557 15.96ZM342.997 15.96L341.181 18.3475L341.269 18.4148L341.363 18.4753L342.997 15.96ZM336.038 11.96L334.923 14.7454L334.965 14.762L335.007 14.7774L336.038 11.96ZM318.677 13.24L320.432 15.6735L320.45 15.6603L320.469 15.6467L318.677 13.24ZM318.277 26.04L316.629 28.5462L316.652 28.5616L316.676 28.5765L318.277 26.04ZM328.038 29.56L327.343 32.4784L327.358 32.482L327.373 32.4854L328.038 29.56ZM339.397 32.92L338.266 35.6983L338.296 35.7108L338.327 35.7227L339.397 32.92ZM346.358 37.64L344.063 39.5724L344.09 39.605L344.119 39.6368L346.358 37.64ZM346.277 53.88L343.847 52.1216L343.84 52.1313L346.277 53.88ZM338.758 59.64L339.911 62.4092L339.923 62.4045L339.934 62.3998L338.758 59.64ZM327.638 58.64C323.864 58.64 320.293 58.1193 316.911 57.09L315.164 62.83C319.142 64.0407 323.304 64.64 327.638 64.64V58.64ZM316.923 57.0936C313.597 56.0666 311.111 54.7022 309.327 53.0928L305.308 57.5472C307.898 59.8844 311.225 61.6134 315.152 62.8264L316.923 57.0936ZM309.25 53.0253C308.919 52.7462 308.797 52.495 308.797 52.04H302.797C302.797 54.2516 303.69 56.1871 305.385 57.6147L309.25 53.0253ZM308.797 52.04C308.797 51.669 308.885 51.5807 308.902 51.5606L304.293 47.7194C303.243 48.9793 302.797 50.491 302.797 52.04H308.797ZM308.975 51.4691C309.037 51.3895 309.023 51.4349 308.906 51.4979C308.849 51.5289 308.781 51.5566 308.705 51.5754C308.63 51.5942 308.565 51.6 308.517 51.6V45.6C306.673 45.6 305.211 46.522 304.22 47.8109L308.975 51.4691ZM308.517 51.6C308.433 51.6 308.477 51.5824 308.686 51.6622C308.892 51.7409 309.195 51.8905 309.603 52.1553L312.872 47.1247C311.623 46.3127 310.124 45.6 308.517 45.6V51.6ZM309.451 52.0497C314.73 55.9648 320.774 57.92 327.478 57.92V51.92C322.021 51.92 317.238 50.3552 313.024 47.2303L309.451 52.0497ZM327.478 57.92C332.056 57.92 336.036 57.072 339.034 54.9804L335.601 50.0596C334.012 51.168 331.433 51.92 327.478 51.92V57.92ZM339.034 54.9804C342.194 52.7757 343.758 49.5285 343.758 45.64H337.758C337.758 47.7248 337.028 49.0643 335.601 50.0596L339.034 54.9804ZM343.758 45.64C343.758 43.9969 343.379 42.4169 342.523 41.0051C341.671 39.5991 340.446 38.5249 339.003 37.7313L336.112 42.9886C336.802 43.3684 337.177 43.7609 337.392 44.1149C337.603 44.4631 337.758 44.9364 337.758 45.64H343.758ZM339.003 37.7313C336.488 36.3482 332.737 35.1553 327.982 34.0746L326.653 39.9254C331.284 40.9781 334.36 42.0252 336.112 42.9886L339.003 37.7313ZM327.946 34.0666C323.576 33.1301 320.096 32.0857 317.453 30.9599L315.102 36.4801C318.219 37.8076 322.099 38.9499 326.689 39.9334L327.946 34.0666ZM317.453 30.9599C314.95 29.894 313.118 28.5183 311.826 26.8933L307.129 30.6267C309.144 33.1617 311.845 35.0927 315.102 36.4801L317.453 30.9599ZM311.878 26.96C310.746 25.4518 310.078 23.4303 310.078 20.68H304.078C304.078 24.4363 305.009 27.8015 307.078 30.56L311.878 26.96ZM310.078 20.68C310.078 18.0031 310.79 15.7334 312.173 13.7639L307.262 10.3161C305.125 13.3599 304.078 16.8503 304.078 20.68H310.078ZM312.166 13.774C313.627 11.7109 315.676 10.0661 318.43 8.87266L316.045 3.36733C312.399 4.9472 309.435 7.24913 307.269 10.3059L312.166 13.774ZM318.469 8.85576C321.221 7.6171 324.444 6.96 328.198 6.96V0.959995C323.738 0.959995 319.654 1.7429 316.006 3.38423L318.469 8.85576ZM328.198 6.96C331.701 6.96 334.87 7.45301 337.729 8.40605L339.626 2.71395C336.085 1.53365 332.268 0.959995 328.198 0.959995V6.96ZM337.729 8.40605C340.565 9.35142 342.901 10.7187 344.796 12.4784L348.879 8.08162C346.294 5.68127 343.19 3.90191 339.626 2.71395L337.729 8.40605ZM344.895 12.5658C345.362 12.9629 345.438 13.2493 345.438 13.56H351.438C351.438 11.3107 350.447 9.41046 348.78 7.99418L344.895 12.5658ZM345.438 13.56C345.438 13.7558 345.397 13.8695 345.267 14.0222L349.848 17.8978C350.892 16.6639 351.438 15.1776 351.438 13.56H345.438ZM345.18 14.1309C345.118 14.2105 345.132 14.1651 345.249 14.1021C345.306 14.0711 345.374 14.0434 345.45 14.0246C345.525 14.0058 345.59 14 345.638 14V20C347.482 20 348.944 19.078 349.935 17.7891L345.18 14.1309ZM345.638 14C345.777 14 345.766 14.0311 345.557 13.9488C345.356 13.8695 345.051 13.7166 344.632 13.4447L341.363 18.4753C342.567 19.2582 344.054 20 345.638 20V14ZM344.814 13.5725C342.194 11.5792 339.611 10.073 337.068 9.14263L335.007 14.7774C336.837 15.447 338.894 16.6075 341.181 18.3475L344.814 13.5725ZM337.152 9.17457C334.57 8.1418 331.583 7.68 328.277 7.68V13.68C331.052 13.68 333.239 14.0715 334.923 14.7454L337.152 9.17457ZM328.277 7.68C323.798 7.68 319.88 8.60569 316.886 10.8333L320.469 15.6467C322.062 14.461 324.544 13.68 328.277 13.68V7.68ZM316.923 10.8065C313.797 13.0601 312.237 16.3131 312.237 20.2H318.237C318.237 18.1136 318.971 16.7266 320.432 15.6735L316.923 10.8065ZM312.237 20.2C312.237 23.7028 313.704 26.6223 316.629 28.5462L319.926 23.5337C318.797 22.791 318.237 21.8172 318.237 20.2H312.237ZM316.676 28.5765C319.133 30.1284 322.78 31.3922 327.343 32.4784L328.732 26.6416C324.335 25.5945 321.476 24.5116 319.879 23.5035L316.676 28.5765ZM327.373 32.4854C331.983 33.5332 335.595 34.6104 338.266 35.6983L340.529 30.1417C337.44 28.8829 333.479 27.7202 328.702 26.6346L327.373 32.4854ZM338.327 35.7227C340.873 36.6948 342.74 38.0013 344.063 39.5724L348.652 35.7076C346.562 33.2254 343.788 31.3852 340.468 30.1173L338.327 35.7227ZM344.119 39.6368C345.298 40.9595 345.997 42.7622 345.997 45.32H351.997C351.997 41.5845 350.937 38.2671 348.596 35.6432L344.119 39.6368ZM345.997 45.32C345.997 47.9117 345.277 50.145 343.847 52.1216L348.708 55.6384C350.905 52.6016 351.997 49.1283 351.997 45.32H345.997ZM343.84 52.1313C342.451 54.067 340.417 55.6715 337.581 56.8802L339.934 62.3998C343.605 60.8352 346.584 58.5997 348.715 55.6287L343.84 52.1313ZM337.604 56.8708C334.839 58.0227 331.538 58.64 327.638 58.64V64.64C332.164 64.64 336.276 63.9239 339.911 62.4092L337.604 56.8708ZM381.288 59.96L379.166 62.0813L379.205 62.1206L379.246 62.1584L381.288 59.96ZM381.367 5.4L383.489 7.52132L383.525 7.48475L383.561 7.44695L381.367 5.4ZM388.487 54.12H385.487V57.12H388.487V54.12ZM415.608 55L413.58 57.2115L413.624 57.2517L413.67 57.2902L415.608 55ZM415.608 60.12L413.67 57.8298L413.624 57.8683L413.58 57.9085L415.608 60.12ZM384.247 58C383.615 58 383.412 57.8384 383.329 57.7616L379.246 62.1584C380.657 63.4682 382.427 64 384.247 64V58ZM383.409 57.8387C383.386 57.8163 383.247 57.7053 383.247 57.16H377.247C377.247 58.9614 377.802 60.717 379.166 62.0813L383.409 57.8387ZM383.247 57.16V8.36H377.247V57.16H383.247ZM383.247 8.36C383.247 7.7899 383.396 7.61412 383.489 7.52132L379.246 3.27868C377.846 4.6792 377.247 6.47676 377.247 8.36H383.247ZM383.561 7.44695C383.668 7.33159 383.821 7.2 384.328 7.2V1.2C382.38 1.2 380.56 1.8684 379.174 3.35304L383.561 7.44695ZM384.328 7.2C384.992 7.2 385.178 7.37297 385.246 7.44132L389.489 3.19868C388.064 1.77369 386.223 1.2 384.328 1.2V7.2ZM385.246 7.44132C385.315 7.50967 385.487 7.69553 385.487 8.36H391.487C391.487 6.46446 390.914 4.62366 389.489 3.19868L385.246 7.44132ZM385.487 8.36V54.12H391.487V8.36H385.487ZM388.487 57.12H412.807V51.12H388.487V57.12ZM412.807 57.12C413.593 57.12 413.686 57.3081 413.58 57.2115L417.635 52.7885C416.249 51.5185 414.475 51.12 412.807 51.12V57.12ZM413.67 57.2902C413.661 57.2832 413.646 57.2682 413.63 57.2465C413.623 57.2364 413.618 57.2273 413.614 57.22C413.61 57.2127 413.608 57.2087 413.608 57.2091C413.608 57.2096 413.618 57.2333 413.628 57.2891C413.638 57.3457 413.647 57.434 413.647 57.56H419.647C419.647 55.7819 419.067 53.9971 417.545 52.7098L413.67 57.2902ZM413.647 57.56C413.647 57.686 413.638 57.7743 413.628 57.8309C413.618 57.8867 413.608 57.9104 413.608 57.9109C413.608 57.9113 413.61 57.9073 413.614 57.9C413.618 57.8927 413.623 57.8836 413.63 57.8735C413.646 57.8518 413.661 57.8368 413.67 57.8298L417.545 62.4102C419.067 61.1229 419.647 59.3381 419.647 57.56H413.647ZM413.58 57.9085C413.686 57.8119 413.593 58 412.807 58V64C414.475 64 416.249 63.6015 417.635 62.3315L413.58 57.9085ZM412.807 58H384.247V64H412.807V58ZM425.117 60.28L422.996 62.4013L425.117 60.28ZM425.117 5.4L427.239 7.52132L427.275 7.48475L427.311 7.44695L425.117 5.4ZM431.117 60.28L428.996 58.1587L428.957 58.198L428.919 58.2386L431.117 60.28ZM428.078 58.4C427.507 58.4 427.332 58.2515 427.239 58.1587L422.996 62.4013C424.397 63.8018 426.194 64.4 428.078 64.4V58.4ZM427.239 58.1587C427.17 58.0903 426.997 57.9045 426.997 57.24H420.997C420.997 59.1355 421.571 60.9763 422.996 62.4013L427.239 58.1587ZM426.997 57.24V8.36H420.997V57.24H426.997ZM426.997 8.36C426.997 7.7899 427.146 7.61412 427.239 7.52132L422.996 3.27868C421.596 4.6792 420.997 6.47676 420.997 8.36H426.997ZM427.311 7.44695C427.418 7.33159 427.571 7.2 428.078 7.2V1.2C426.13 1.2 424.31 1.8684 422.924 3.35304L427.311 7.44695ZM428.078 7.2C428.742 7.2 428.928 7.37297 428.996 7.44132L433.239 3.19868C431.814 1.77369 429.973 1.2 428.078 1.2V7.2ZM428.996 7.44132C429.065 7.50967 429.237 7.69553 429.237 8.36H435.237C435.237 6.46446 434.664 4.62366 433.239 3.19868L428.996 7.44132ZM429.237 8.36V57.24H435.237V8.36H429.237ZM429.237 57.24C429.237 57.9045 429.065 58.0903 428.996 58.1587L433.239 62.4013C434.664 60.9763 435.237 59.1355 435.237 57.24H429.237ZM428.919 58.2386C428.913 58.2458 428.892 58.2713 428.8 58.305C428.693 58.3444 428.47 58.4 428.078 58.4V64.4C429.974 64.4 431.894 63.853 433.316 62.3214L428.919 58.2386ZM498.286 5.4L496.092 7.44695L496.128 7.48475L496.164 7.52132L498.286 5.4ZM498.366 60.36L496.244 58.2387L496.202 58.2811L496.161 58.3252L498.366 60.36ZM493.006 60.36L490.801 62.3948L493.006 60.36ZM492.046 20.28H495.046L489.39 18.8845L492.046 20.28ZM476.366 50.12L479.002 51.5513L479.012 51.5334L479.021 51.5155L476.366 50.12ZM468.526 50.12L465.879 51.5329L465.884 51.5421L465.889 51.5513L468.526 50.12ZM452.766 20.6L455.412 19.1871L449.766 20.6H452.766ZM451.806 60.36L449.601 58.3252L451.806 60.36ZM446.366 60.36L444.088 62.3124L444.163 62.3998L444.244 62.4813L446.366 60.36ZM446.526 5.4L448.647 7.52132L448.684 7.48475L448.719 7.44695L446.526 5.4ZM453.406 7.08L456.064 5.68971L456.059 5.67972L453.406 7.08ZM472.526 43.64L469.867 45.0303L472.537 50.1349L475.189 45.0211L472.526 43.64ZM491.486 7.08L488.832 5.67972L488.827 5.68928L488.822 5.69888L491.486 7.08ZM495.406 7.2C495.815 7.2 495.957 7.3023 496.092 7.44695L500.479 3.35304C499.12 1.8977 497.343 1.2 495.406 1.2V7.2ZM496.164 7.52132C496.257 7.61412 496.406 7.7899 496.406 8.36H502.406C502.406 6.47676 501.807 4.6792 500.407 3.27868L496.164 7.52132ZM496.406 8.36V57.48H502.406V8.36H496.406ZM496.406 57.48C496.406 57.814 496.358 58.0063 496.324 58.1011C496.294 58.1841 496.267 58.2164 496.244 58.2387L500.487 62.4813C501.876 61.092 502.406 59.2914 502.406 57.48H496.406ZM496.161 58.3252C496.158 58.3289 496.159 58.3275 496.162 58.3255C496.164 58.3236 496.158 58.3289 496.134 58.3378C496.086 58.3562 495.94 58.4 495.646 58.4V64.4C497.438 64.4 499.229 63.8475 500.57 62.3948L496.161 58.3252ZM495.646 58.4C495.394 58.4 495.277 58.3613 495.245 58.3488C495.225 58.3407 495.223 58.3389 495.21 58.3252L490.801 62.3948C492.115 63.8183 493.859 64.4 495.646 64.4V58.4ZM495.21 58.3252C495.199 58.3132 495.167 58.2776 495.132 58.1713C495.093 58.0542 495.046 57.837 495.046 57.48H489.046C489.046 59.2278 489.511 60.9971 490.801 62.3948L495.21 58.3252ZM495.046 57.48V20.28H489.046V57.48H495.046ZM489.39 18.8845L473.71 48.7245L479.021 51.5155L494.701 21.6755L489.39 18.8845ZM473.729 48.6887C473.042 49.9539 472.585 49.92 472.446 49.92V55.92C475.507 55.92 477.662 54.0194 479.002 51.5513L473.729 48.6887ZM472.446 49.92C472.307 49.92 471.849 49.9539 471.162 48.6887L465.889 51.5513C467.229 54.0194 469.385 55.92 472.446 55.92V49.92ZM471.172 48.7071L455.412 19.1871L450.119 22.0129L465.879 51.5329L471.172 48.7071ZM449.766 20.6V57.48H455.766V20.6H449.766ZM449.766 57.48C449.766 57.837 449.719 58.0542 449.68 58.1713C449.644 58.2776 449.612 58.3132 449.601 58.3252L454.01 62.3948C455.3 60.9971 455.766 59.2278 455.766 57.48H449.766ZM449.601 58.3252C449.598 58.329 449.599 58.3275 449.602 58.3255C449.604 58.3236 449.598 58.3289 449.574 58.3378C449.526 58.3562 449.38 58.4 449.086 58.4V64.4C450.878 64.4 452.669 63.8475 454.01 62.3948L449.601 58.3252ZM449.086 58.4C448.638 58.4 448.536 58.288 448.487 58.2387L444.244 62.4813C445.582 63.8186 447.293 64.4 449.086 64.4V58.4ZM448.643 58.4076C448.556 58.3055 448.406 58.0822 448.406 57.48H442.406C442.406 59.2245 442.895 60.9212 444.088 62.3124L448.643 58.4076ZM448.406 57.48V8.36H442.406V57.48H448.406ZM448.406 8.36C448.406 7.7899 448.554 7.61412 448.647 7.52132L444.404 3.27868C443.004 4.6792 442.406 6.47676 442.406 8.36H448.406ZM448.719 7.44695C448.854 7.30229 448.997 7.2 449.406 7.2V1.2C447.468 1.2 445.691 1.8977 444.332 3.35304L448.719 7.44695ZM449.406 7.2C449.592 7.2 450.069 7.18551 450.752 8.48027L456.059 5.67972C454.715 3.13448 452.526 1.2 449.406 1.2V7.2ZM450.747 8.47028L469.867 45.0303L475.184 42.2497L456.064 5.68972L450.747 8.47028ZM475.189 45.0211L494.149 8.46112L488.822 5.69888L469.862 42.2589L475.189 45.0211ZM494.139 8.48027C494.502 7.79182 494.816 7.47417 495.002 7.33764C495.148 7.23052 495.254 7.2 495.406 7.2V1.2C492.3 1.2 490.152 3.1797 488.832 5.67972L494.139 8.48027ZM513.711 60.28L511.59 62.4013L513.711 60.28ZM513.711 5.4L515.833 7.52132L515.869 7.48475L515.904 7.44695L513.711 5.4ZM519.711 60.28L517.59 58.1587L517.551 58.198L517.513 58.2386L519.711 60.28ZM516.671 58.4C516.101 58.4 515.925 58.2515 515.833 58.1587L511.59 62.4013C512.99 63.8018 514.788 64.4 516.671 64.4V58.4ZM515.833 58.1587C515.764 58.0903 515.591 57.9045 515.591 57.24H509.591C509.591 59.1355 510.165 60.9763 511.59 62.4013L515.833 58.1587ZM515.591 57.24V8.36H509.591V57.24H515.591ZM515.591 8.36C515.591 7.7899 515.74 7.61412 515.833 7.52132L511.59 3.27868C510.189 4.6792 509.591 6.47676 509.591 8.36H515.591ZM515.904 7.44695C516.012 7.33159 516.165 7.2 516.671 7.2V1.2C514.724 1.2 512.904 1.8684 511.518 3.35304L515.904 7.44695ZM516.671 7.2C517.336 7.2 517.522 7.37297 517.59 7.44132L521.833 3.19868C520.408 1.77369 518.567 1.2 516.671 1.2V7.2ZM517.59 7.44132C517.658 7.50967 517.831 7.69553 517.831 8.36H523.831C523.831 6.46446 523.258 4.62366 521.833 3.19868L517.59 7.44132ZM517.831 8.36V57.24H523.831V8.36H517.831ZM517.831 57.24C517.831 57.9045 517.658 58.0903 517.59 58.1587L521.833 62.4013C523.258 60.9763 523.831 59.1355 523.831 57.24H517.831ZM517.513 58.2386C517.506 58.2458 517.485 58.2713 517.394 58.305C517.287 58.3444 517.064 58.4 516.671 58.4V64.4C518.568 64.4 520.487 63.853 521.91 62.3214L517.513 58.2386ZM548.479 60.28L546.286 62.327L546.357 62.4026L546.432 62.4732L548.479 60.28ZM547.359 11.48H550.359V8.48H547.359V11.48ZM528.479 5.48L526.542 3.18984L526.496 3.2283L526.452 3.26854L528.479 5.48ZM574.479 5.48L572.452 7.69146L572.496 7.7317L572.542 7.77016L574.479 5.48ZM555.679 11.48V8.48H552.679V11.48H555.679ZM554.559 60.28L556.681 62.4013L556.717 62.3648L556.753 62.327L554.559 60.28ZM551.519 58.4C550.953 58.4 550.702 58.251 550.526 58.0868L546.432 62.4732C547.857 63.8024 549.632 64.4 551.519 64.4V58.4ZM550.673 58.233C550.508 58.0572 550.359 57.8062 550.359 57.24H544.359C544.359 59.1272 544.957 60.9028 546.286 62.327L550.673 58.233ZM550.359 57.24V11.48H544.359V57.24H550.359ZM547.359 8.48H531.359V14.48H547.359V8.48ZM531.359 8.48C530.465 8.48 530.355 8.27263 530.481 8.38549C530.548 8.44533 530.573 8.50471 530.571 8.4988C530.562 8.47539 530.519 8.34184 530.519 8.04H524.519C524.519 9.73964 525.009 11.5387 526.478 12.8545C527.884 14.114 529.693 14.48 531.359 14.48V8.48ZM530.519 8.04C530.519 7.76015 530.56 7.63596 530.568 7.61337C530.572 7.60352 530.569 7.6133 530.556 7.6341C530.541 7.65541 530.524 7.67573 530.507 7.69146L526.452 3.26854C525.024 4.57729 524.519 6.33753 524.519 8.04H530.519ZM530.417 7.77015C530.422 7.76623 530.464 7.72933 530.596 7.68905C530.737 7.64595 530.98 7.6 531.359 7.6V1.6C529.673 1.6 527.941 2.00591 526.542 3.18984L530.417 7.77015ZM531.359 7.6H571.679V1.6H531.359V7.6ZM571.679 7.6C572.465 7.6 572.558 7.78813 572.452 7.69146L576.507 3.26854C575.121 1.99854 573.347 1.6 571.679 1.6V7.6ZM572.542 7.77016C572.533 7.76321 572.518 7.74819 572.502 7.72647C572.495 7.71644 572.49 7.70732 572.485 7.69997C572.481 7.69267 572.48 7.68869 572.48 7.68913C572.48 7.68959 572.49 7.71333 572.5 7.76908C572.51 7.82568 572.519 7.91396 572.519 8.04H578.519C578.519 6.26194 577.938 4.47709 576.417 3.18984L572.542 7.77016ZM572.519 8.04C572.519 8.34184 572.476 8.47539 572.468 8.4988C572.466 8.50471 572.491 8.44533 572.558 8.38549C572.684 8.27263 572.573 8.48 571.679 8.48V14.48C573.345 14.48 575.155 14.114 576.561 12.8545C578.03 11.5387 578.519 9.73964 578.519 8.04H572.519ZM571.679 8.48H555.679V14.48H571.679V8.48ZM552.679 11.48V57.24H558.679V11.48H552.679ZM552.679 57.24C552.679 57.8062 552.53 58.0572 552.366 58.233L556.753 62.327C558.082 60.9028 558.679 59.1272 558.679 57.24H552.679ZM552.438 58.1587C552.37 58.227 552.184 58.4 551.519 58.4V64.4C553.415 64.4 555.256 63.8263 556.681 62.4013L552.438 58.1587ZM583.397 59.96L581.198 62.0014L581.274 62.0828L581.356 62.1584L583.397 59.96ZM583.397 5.72L581.276 3.59868L583.397 5.72ZM618.677 5.48L616.65 7.69146L616.694 7.7317L616.739 7.77016L618.677 5.48ZM618.677 10.44L620.597 12.7447L620.606 12.7374L620.615 12.7302L618.677 10.44ZM590.437 11.24V8.24H587.437V11.24H590.437ZM590.437 29H587.437V32H590.437V29ZM617.077 29.88L615.05 32.0915L615.094 32.1317L615.139 32.1702L617.077 29.88ZM617.077 34.84L615.139 32.5498L615.094 32.5883L615.05 32.6285L617.077 34.84ZM590.437 35.72V32.72H587.437V35.72H590.437ZM590.437 54.36H587.437V57.36H590.437V54.36ZM618.677 60.12L616.739 57.8298L616.694 57.8683L616.65 57.9085L618.677 60.12ZM586.437 58C585.712 58 585.498 57.8168 585.438 57.7616L581.356 62.1584C582.789 63.4899 584.602 64 586.437 64V58ZM585.595 57.9186C585.518 57.8359 585.357 57.6327 585.357 57H579.357C579.357 58.8207 579.889 60.5908 581.198 62.0014L585.595 57.9186ZM585.357 57V8.6H579.357V57H585.357ZM585.357 8.6C585.357 8.26595 585.404 8.07372 585.439 7.97893C585.469 7.89594 585.496 7.86357 585.518 7.84132L581.276 3.59868C579.886 4.98801 579.357 6.7886 579.357 8.6H585.357ZM585.518 7.84132C585.587 7.77297 585.772 7.6 586.437 7.6V1.6C584.541 1.6 582.701 2.17369 581.276 3.59868L585.518 7.84132ZM586.437 7.6H615.877V1.6H586.437V7.6ZM615.877 7.6C616.662 7.6 616.755 7.78813 616.65 7.69146L620.704 3.26854C619.319 1.99854 617.545 1.6 615.877 1.6V7.6ZM616.739 7.77016C616.74 7.77074 616.729 7.76173 616.716 7.74304C616.702 7.72422 616.693 7.70783 616.69 7.70018C616.683 7.68332 616.717 7.75078 616.717 7.96H622.717C622.717 6.18139 622.102 4.44817 620.615 3.18984L616.739 7.77016ZM616.717 7.96C616.717 8.16921 616.683 8.23668 616.69 8.21982C616.693 8.21217 616.702 8.19578 616.716 8.17695C616.729 8.15827 616.74 8.14926 616.739 8.14984L620.615 12.7302C622.102 11.4718 622.717 9.7386 622.717 7.96H616.717ZM616.756 8.13534C616.859 8.04936 616.723 8.24 615.877 8.24V14.24C617.484 14.24 619.214 13.8973 620.597 12.7447L616.756 8.13534ZM615.877 8.24H590.437V14.24H615.877V8.24ZM587.437 11.24V29H593.437V11.24H587.437ZM590.437 32H614.277V26H590.437V32ZM614.277 32C615.062 32 615.155 32.1881 615.05 32.0915L619.104 27.6685C617.719 26.3985 615.945 26 614.277 26V32ZM615.139 32.1702C615.14 32.1707 615.129 32.1617 615.116 32.143C615.102 32.1242 615.094 32.1078 615.09 32.1002C615.083 32.0833 615.117 32.1508 615.117 32.36H621.117C621.117 30.5814 620.502 28.8482 619.015 27.5898L615.139 32.1702ZM615.117 32.36C615.117 32.5692 615.083 32.6367 615.09 32.6198C615.094 32.6122 615.102 32.5958 615.116 32.577C615.129 32.5583 615.14 32.5493 615.139 32.5498L619.015 37.1302C620.502 35.8718 621.117 34.1386 621.117 32.36H615.117ZM615.05 32.6285C615.155 32.5319 615.062 32.72 614.277 32.72V38.72C615.945 38.72 617.719 38.3215 619.104 37.0515L615.05 32.6285ZM614.277 32.72H590.437V38.72H614.277V32.72ZM587.437 35.72V54.36H593.437V35.72H587.437ZM590.437 57.36H615.877V51.36H590.437V57.36ZM615.877 57.36C616.313 57.36 616.586 57.4077 616.735 57.4503C616.877 57.4906 616.872 57.5151 616.808 57.4611C616.735 57.3985 616.693 57.3243 616.682 57.2956C616.678 57.2851 616.717 57.3793 616.717 57.64H622.717C622.717 55.9498 622.2 54.1756 620.705 52.8989C619.301 51.6995 617.514 51.36 615.877 51.36V57.36ZM616.717 57.64C616.717 57.8492 616.683 57.9167 616.69 57.8998C616.693 57.8922 616.702 57.8758 616.716 57.857C616.729 57.8383 616.74 57.8293 616.739 57.8298L620.615 62.4102C622.102 61.1518 622.717 59.4186 622.717 57.64H616.717ZM616.65 57.9085C616.755 57.8119 616.662 58 615.877 58V64C617.545 64 619.319 63.6015 620.704 62.3315L616.65 57.9085ZM615.877 58H586.437V64H615.877V58ZM630.194 59.96L627.995 62.0014L628.071 62.0828L628.152 62.1584L630.194 59.96ZM630.194 5.72L628.072 3.59868L630.194 5.72ZM670.114 11.96L672.212 9.81599L670.114 11.96ZM670.114 53.64L672.212 55.784L672.218 55.7783L672.224 55.7726L670.114 53.64ZM637.394 11.48V8.48H634.394V11.48H637.394ZM637.394 54.12H634.394V57.12H637.394V54.12ZM633.234 58C632.509 58 632.295 57.8168 632.235 57.7616L628.152 62.1584C629.586 63.4899 631.399 64 633.234 64V58ZM632.392 57.9186C632.315 57.8359 632.154 57.6327 632.154 57H626.154C626.154 58.8207 626.686 60.5908 627.995 62.0014L632.392 57.9186ZM632.154 57V8.6H626.154V57H632.154ZM632.154 8.6C632.154 8.26595 632.201 8.07372 632.235 7.97893C632.265 7.89594 632.293 7.86357 632.315 7.84132L628.072 3.59868C626.683 4.98801 626.154 6.7886 626.154 8.6H632.154ZM632.315 7.84132C632.383 7.77297 632.569 7.6 633.234 7.6V1.6C631.338 1.6 629.497 2.17369 628.072 3.59868L632.315 7.84132ZM633.234 7.6H648.914V1.6H633.234V7.6ZM648.914 7.6C657.494 7.6 663.716 9.89617 668.015 14.104L672.212 9.81599C666.485 4.21049 658.574 1.6 648.914 1.6V7.6ZM668.015 14.104C672.303 18.3006 674.634 24.3714 674.634 32.76H680.634C680.634 23.2286 677.951 15.4328 672.212 9.81599L668.015 14.104ZM674.634 32.76C674.634 41.1469 672.304 47.2532 668.004 51.5074L672.224 55.7726C677.951 50.1068 680.634 42.2931 680.634 32.76H674.634ZM668.015 51.496C663.716 55.7038 657.494 58 648.914 58V64C658.574 64 666.485 61.3895 672.212 55.784L668.015 51.496ZM648.914 58H633.234V64H648.914V58ZM648.434 57.12C655.85 57.12 661.959 55.2112 666.183 50.873C670.393 46.5495 672.234 40.3227 672.234 32.76H666.234C666.234 39.4373 664.608 43.8905 661.884 46.687C659.176 49.4688 654.884 51.12 648.434 51.12V57.12ZM672.234 32.76C672.234 25.2212 670.392 19.0128 666.179 14.703C661.954 10.3805 655.847 8.48 648.434 8.48V14.48C654.887 14.48 659.18 16.1261 661.888 18.897C664.609 21.6805 666.234 26.1121 666.234 32.76H672.234ZM648.434 8.48H637.394V14.48H648.434V8.48ZM634.394 11.48V54.12H640.394V11.48H634.394ZM637.394 57.12H648.434V51.12H637.394V57.12Z" fill="white"/>
</svg>
